<?xml version="1.0" encoding="UTF-8" standalone="no"?>
<svg
   width="136.91344"
   height="129.478"
   viewBox="0 0 36.225014 34.257631"
   xml:space="preserve"
   version="1.1"
   id="svg1"
   xmlns="http://www.w3.org/2000/svg"
   xmlns:svg="http://www.w3.org/2000/svg"><defs
   id="defs1" />&#10;  &#10;  &#10;  &#10;  &#10;  &#10;  &#10;  &#10;  &#10;  &#10;  &#10;  &#10;  &#10;  &#10;  &#10;  &#10;  &#10;  &#10;  &#10;  &#10;  &#10;<path
   style="fill:none;fill-opacity:1;stroke:#000000;stroke-width:0.79375001;stroke-linecap:square;stroke-linejoin:miter;stroke-dasharray:none;stroke-dashoffset:0;stroke-opacity:1;paint-order:normal"
   d="m 10.31557,11.147342 c -0.8533948,2.0723 1.351961,11.30255 -3.0451768,11.02952 -4.397138,-0.27303 -8.764339,0.7179 -6.53781496,0.95341 3.09598396,0.32749 9.35237576,-1.52891 9.47045476,1.91101 0.191222,5.57075 0.666046,9.80444 1.396675,8.98248 0.730625,-0.82196 -1.12728,-10.10422 0.982452,-10.85701 2.859325,-1.02025 8.185923,0.58807 8.185923,-0.32518 0,-0.55068 -2.582392,-0.51337 -5.33065,-0.71003 -1.809643,-0.12949 -3.15405,-0.0703 -3.382985,-1.17978 -0.316601,-1.53427 -0.885483,-11.8767198 -1.738878,-9.80442 z"
   id="path199-2" /><path
   style="fill:none;fill-opacity:1;stroke:#000000;stroke-width:0.79375001;stroke-linecap:square;stroke-linejoin:miter;stroke-dasharray:none;stroke-dashoffset:0;stroke-opacity:1;paint-order:normal"
   d="m 34.853283,21.865622 c -0.767568,0.19491 -1.259333,1.11979 -0.893026,1.82024 0.344486,0.65872 1.476005,1.13355 1.967363,-0.0528 0.529247,-1.27787 -0.30677,-1.96233 -1.074337,-1.76741 z"
   id="path200-02" /><path
   style="fill:none;fill-opacity:1;stroke:#000000;stroke-width:0.79375001;stroke-linecap:square;stroke-linejoin:miter;stroke-dasharray:none;stroke-dashoffset:0;stroke-opacity:1;paint-order:normal"
   d="m 11.569949,0.16978225 c -0.767567,0.19491 -1.259332,1.11978995 -0.893025,1.82023995 0.344486,0.65872 1.476004,1.13355 1.967363,-0.0528 0.529246,-1.27787995 -0.30677,-1.96233995 -1.074338,-1.76741995 z"
   id="path200-7" /></svg>
